# Blender v3.2.1 OBJ File: ''
# www.blender.org
mtllib Ring.mtl
o Torus
v -0.000000 0.000000 -4.250000
v 0.216506 -0.000000 -3.875000
v -0.216507 0.000000 -3.875000
v 0.000000 3.005204 -3.005203
v 0.216506 2.740039 -2.740038
v -0.216506 2.740039 -2.740038
v 0.000000 4.250000 -0.000000
v 0.216507 3.875000 -0.000000
v -0.216506 3.875000 -0.000000
v 0.000000 3.005203 3.005204
v 0.216507 2.740038 2.740039
v -0.216506 2.740038 2.740039
v 0.000000 0.000000 4.250000
v 0.216507 0.000000 3.875000
v -0.216506 0.000000 3.875000
v 0.000000 -3.005203 3.005204
v 0.216506 -2.740038 2.740039
v -0.216506 -2.740038 2.740039
v -0.000000 -4.250000 -0.000000
v 0.216506 -3.875000 -0.000000
v -0.216507 -3.875000 -0.000000
v -0.000000 -3.005206 -3.005202
v 0.216506 -2.740040 -2.740037
v -0.216507 -2.740040 -2.740037
vt 0.500000 0.666667
vt 0.625000 0.666667
vt 0.625000 1.000000
vt 0.500000 1.000000
vt 0.500000 0.000000
vt 0.625000 0.000000
vt 0.625000 0.333333
vt 0.500000 0.333333
vt 0.750000 0.666667
vt 0.750000 1.000000
vt 0.750000 0.000000
vt 0.750000 0.333333
vt 0.875000 0.666667
vt 0.875000 1.000000
vt 0.875000 0.000000
vt 0.875000 0.333333
vt 1.000000 0.666667
vt 1.000000 1.000000
vt 1.000000 0.000000
vt 1.000000 0.333333
vt 0.000000 0.666667
vt 0.125000 0.666667
vt 0.125000 1.000000
vt 0.000000 1.000000
vt 0.000000 0.000000
vt 0.125000 0.000000
vt 0.125000 0.333333
vt 0.000000 0.333333
vt 0.250000 0.666667
vt 0.250000 1.000000
vt 0.250000 0.000000
vt 0.250000 0.333333
vt 0.375000 0.666667
vt 0.375000 1.000000
vt 0.375000 0.000000
vt 0.375000 0.333333
vn 0.8480 0.2028 -0.4896
vn 0.0000 -0.3827 0.9239
vn -0.8480 0.2028 -0.4896
vn 0.8480 0.4896 -0.2028
vn 0.0000 -0.9239 0.3827
vn -0.8480 0.4896 -0.2028
vn 0.8480 0.4896 0.2028
vn 0.0000 -0.9239 -0.3827
vn -0.8480 0.4896 0.2028
vn 0.8480 0.2028 0.4896
vn 0.0000 -0.3827 -0.9239
vn -0.8480 0.2028 0.4896
vn 0.8480 -0.2028 0.4896
vn 0.0000 0.3827 -0.9239
vn -0.8480 -0.2028 0.4896
vn 0.8480 -0.4896 0.2028
vn 0.0000 0.9239 -0.3827
vn -0.8480 -0.4896 0.2028
vn 0.8480 -0.4896 -0.2028
vn 0.0000 0.9239 0.3827
vn -0.8480 -0.4896 -0.2028
vn 0.8480 -0.2028 -0.4896
vn 0.0000 0.3827 0.9239
vn -0.8480 -0.2028 -0.4896
usemtl None
s off
f 1/1/1 4/2/1 5/3/1 2/4/1
f 2/5/2 5/6/2 6/7/2 3/8/2
f 3/8/3 6/7/3 4/2/3 1/1/3
f 4/2/4 7/9/4 8/10/4 5/3/4
f 5/6/5 8/11/5 9/12/5 6/7/5
f 6/7/6 9/12/6 7/9/6 4/2/6
f 7/9/7 10/13/7 11/14/7 8/10/7
f 8/11/8 11/15/8 12/16/8 9/12/8
f 9/12/9 12/16/9 10/13/9 7/9/9
f 10/13/10 13/17/10 14/18/10 11/14/10
f 11/15/11 14/19/11 15/20/11 12/16/11
f 12/16/12 15/20/12 13/17/12 10/13/12
f 13/21/13 16/22/13 17/23/13 14/24/13
f 14/25/14 17/26/14 18/27/14 15/28/14
f 15/28/15 18/27/15 16/22/15 13/21/15
f 16/22/16 19/29/16 20/30/16 17/23/16
f 17/26/17 20/31/17 21/32/17 18/27/17
f 18/27/18 21/32/18 19/29/18 16/22/18
f 19/29/19 22/33/19 23/34/19 20/30/19
f 20/31/20 23/35/20 24/36/20 21/32/20
f 21/32/21 24/36/21 22/33/21 19/29/21
f 22/33/22 1/1/22 2/4/22 23/34/22
f 23/35/23 2/5/23 3/8/23 24/36/23
f 24/36/24 3/8/24 1/1/24 22/33/24
